<svg width="700" height="181" viewBox="0 0 700 181" fill="none" xmlns="http://www.w3.org/2000/svg">
<path d="M51.2833 1.56557C48.0193 2.74522 44.9036 5.2356 43.6425 7.85705C42.9748 9.23331 36.2242 34.2026 28.5834 63.4318C21.0168 92.5954 12.4117 125.953 9.37019 137.488C-1.2379 178.251 -0.347706 174.188 1.06176 176.809C4.17742 182.642 13.5986 182.118 16.3433 175.957C16.7143 174.974 20.4234 161.212 24.5776 145.352C31.7733 117.761 57.4404 20.3089 58.4048 16.9666C58.7757 15.5248 59.2208 15.3937 62.2623 15.4593L65.7489 15.5903L65.9714 66.512L66.1198 117.499H72.7962H79.4726L79.621 66.512L79.8435 15.5903L105.659 15.5248L131.4 15.4593V66.512V117.499H138.448H145.495V66.512V15.5903L148.982 15.6559L152.542 15.7214L157.438 34.6614C160.183 45.0816 165.598 66.1188 169.604 81.4542C186.815 147.842 194.455 176.482 195.346 177.727C198.684 182.446 208.328 181.528 209.885 176.285C210.627 173.86 211.369 177.006 198.165 126.347C192.823 105.768 183.773 71.034 178.061 49.1449C172.423 27.2558 167.305 8.51242 166.711 7.52937C165.302 5.10453 162.631 3.07291 159.441 1.82772C156.993 0.975746 150.02 0.844669 104.917 0.910205C72.722 0.910205 52.4702 1.17235 51.2833 1.56557Z" fill="white"/>
<path d="M255.126 39.9127C250.062 42.3982 250.228 41.0352 250.228 91.7865V138.288L252.967 140.614C255.292 142.618 256.288 142.939 260.687 142.939C266.498 142.939 270.316 141.335 271.395 138.449C271.893 137.326 272.225 130.511 272.225 123.215V110.067H285.756C295.052 110.067 300.78 109.666 304.017 108.864C321.864 104.374 331.991 91.4658 331.991 73.1055C331.991 57.3109 323.939 46.5673 308.417 41.4361C301.859 39.2713 301.195 39.1911 279.696 38.9506C260.853 38.7101 257.367 38.8704 255.126 39.9127ZM296.962 58.3532C304.847 60.6783 309.496 66.5311 309.579 74.228C309.579 79.1187 307.753 83.2076 303.934 87.0561C299.701 91.2252 295.052 92.4279 282.435 92.4279H272.225V74.7892V57.1505H282.435C289.159 57.1505 294.139 57.5514 296.962 58.3532Z" fill="white"/>
<path d="M357.474 39.5808C352.908 41.3447 352.991 39.9817 352.991 91.0537V138.117L354.9 140.282C356.561 142.126 357.723 142.527 362.039 142.847C365.027 143.088 368.099 142.767 369.593 142.206C374.656 140.201 374.573 141.083 374.573 91.4545C374.573 60.4265 374.324 45.4336 373.66 43.6698C373.162 42.2266 371.668 40.6231 370.34 39.9817C367.85 38.6989 360.296 38.4583 357.474 39.5808Z" fill="white"/>
<path d="M410.425 39.2714C405.61 40.5542 403.452 42.3982 402.373 46.0863C401.045 50.5762 394.819 136.444 395.649 138.529C397.143 142.297 399.467 143.42 405.693 143.5C410.84 143.5 411.753 143.259 413.662 141.496C416.069 139.17 415.654 142.377 418.642 103.091C419.804 87.9381 420.634 74.7091 420.385 73.6668C420.219 72.6245 420.302 71.8228 420.634 71.8228C420.966 71.8228 427.358 84.0896 434.995 99.0023C450.434 129.549 449.77 128.748 458.818 128.748C467.617 128.748 467.202 129.229 480.898 102.53C487.539 89.3812 493.847 77.0342 494.76 75.0298L496.587 71.4219L497.168 80.6421C497.417 85.6932 498.662 101.007 499.824 114.637C502.148 142.217 502.065 141.816 508.208 143.179C512.773 144.141 519.414 142.939 521.24 140.774C523.315 138.369 523.232 136.364 519.912 95.7151C518.335 76.6333 516.758 57.7118 516.425 53.6229C515.512 41.6767 512.192 38.5498 500.737 39.111C491.274 39.5119 491.108 39.7524 478.823 64.1259C473.095 75.6712 466.289 89.3011 463.799 94.4323C459.482 103.332 457.988 105.497 457.988 102.69C457.988 102.049 451.347 88.4191 443.213 72.384C433.086 52.4202 427.69 42.7991 426.113 41.5965C424.868 40.6344 422.046 39.5119 419.721 39.0309C414.824 37.9886 415.488 37.9886 410.425 39.2714Z" fill="white"/>
<path d="M548.137 40.3047C546.726 41.1867 545.149 43.0307 544.568 44.4739C543.323 47.9214 543.323 132.507 544.568 136.836C545.149 138.921 546.311 140.364 548.054 141.406C550.544 142.93 552.453 143.01 577.937 143.01C608.152 143.01 609.729 142.769 611.721 138.28C613.132 134.832 612.385 128.819 610.144 126.654C608.401 125.051 607.405 124.97 587.4 124.569L566.482 124.169V112.142V100.116L584.494 99.715C601.345 99.3141 602.673 99.2339 604.25 97.6304C606.242 95.7062 607.156 91.3767 606.408 87.2878C605.993 85.2032 605.08 84.0005 603.171 82.8781C600.764 81.4349 598.938 81.2746 583.249 81.2746H565.984L566.233 69.4086L566.482 57.6227L587.483 57.2218L608.567 56.821L610.559 54.576C612.053 52.8122 612.551 51.369 612.551 48.3223C612.551 43.4316 611.638 41.5876 608.401 39.984C606.408 39.0219 601.428 38.7814 578.352 38.7814C552.619 38.7814 550.544 38.8616 548.137 40.3047Z" fill="white"/>
<path d="M635.958 41.1065L633.551 43.4316V90.4948C633.551 121.202 633.883 138.039 634.381 139.081C636.456 142.769 638.448 143.01 666.505 143.01C691.241 143.01 693.067 142.93 695.558 141.406C698.961 139.402 700.538 134.511 699.21 130.021C697.55 124.73 696.969 124.569 674.889 124.569H655.133V84.8825C655.133 55.8588 654.884 44.7144 654.137 43.1911C652.726 40.1444 649.322 38.7814 643.512 38.7814C638.946 38.7814 638.116 39.0219 635.958 41.1065Z" fill="white"/>
<path d="M43.1934 113.828C43.1934 111.161 45.3547 109 48.0209 109H161.486C164.152 109 166.313 111.161 166.313 113.828V113.828C166.313 130.491 152.805 144 136.141 144H73.3658C56.702 144 43.1934 130.491 43.1934 113.828V113.828Z" fill="#F8CC51"/>
</svg>
