<svg width="1134" height="433" viewBox="0 0 1134 433" fill="none" xmlns="http://www.w3.org/2000/svg">
<path d="M95 276.172C95 270.002 100.002 265 106.172 265H290.828C296.998 265 302 270.002 302 276.172V276.172C302 314.737 270.737 346 232.172 346H164.828C126.263 346 95 314.737 95 276.172V276.172Z" fill="#F8CC51"/>
<path d="M62.6333 3.03332C33.9667 10.6333 12.2333 31.5667 2.76667 60.9C0.766667 67.0333 0.5 81.4333 0.5 215.7V363.7L3.56667 373.033C11.9667 397.833 29.0333 416.367 51.9667 425.433C70.2333 432.633 67.7 432.633 191.833 432.1L307.167 431.7L316.9 428.1C344.767 417.967 365.7 396.233 374.1 369.033C376.367 361.433 376.5 353.033 376.5 217.7C376.5 82.6333 376.367 73.8333 374.1 65.7C365.033 33.8333 341.967 10.7667 311.3 3.03332C301.167 0.499987 296.5 0.366662 186.633 0.499995C78.1 0.499995 71.9667 0.63332 62.6333 3.03332ZM97.1667 163.3C97.1667 304.5 96.9 299.167 106.233 316.9C113.167 330.233 128.9 345.7 139.3 349.567C156.367 355.967 163.033 357.033 191.167 356.9C215.833 356.9 218.767 356.633 230.9 353.433C238.367 351.3 249.433 346.9 256.9 343.033C273.167 334.5 280.233 329.3 267.567 335.033C254.9 340.9 244.633 342.1 212.5 341.3C179.7 340.5 171.3 338.9 155.3 329.7C143.433 322.9 132.233 311.7 127.033 301.433C119.967 287.433 119.833 286.767 119.833 157.033V36.9L187.833 37.0333H255.833V149.3V261.7H267.833H279.967L279.833 222.633C279.833 201.3 279.833 150.5 279.833 109.967V36.3667L286.233 36.5C297.7 36.7667 309.3 39.0333 316.1 42.5C324.1 46.5 333.433 56.1 337.433 64.2333L340.5 70.3667V214.367V358.367L335.967 367.7C330.367 379.033 320.9 388.767 310.767 393.433L303.167 397.033H188.5H73.8333L66.2333 393.967C55.4333 389.567 44.9 379.567 39.5667 368.633L35.1667 359.7L34.7667 221.033C34.3667 65.5666 33.8333 73.9666 44.1 58.1C54.1 42.3666 65.4333 36.9 87.5667 36.5L97.1667 36.3667V163.3Z" fill="#0076CF"/>
<path d="M601.333 101.502C594.133 105.102 589.733 111.368 588.533 119.235C586.4 134.168 598.267 145.368 614.267 143.502C621.2 142.702 626 139.635 630.4 133.102C633.067 129.235 633.467 127.235 633.067 120.302C632.4 110.568 629.6 105.768 622.133 102.035C614.267 98.1682 608.133 97.9015 601.333 101.502Z" fill="#0076CF"/>
<path d="M1075.33 108.701C1073.33 110.701 1073.2 118.568 1073.6 195.768C1074.13 273.101 1074.4 281.235 1076.53 287.901C1079.6 296.968 1086.67 304.301 1094.67 306.701C1102.53 309.101 1123.6 308.835 1128.67 306.435C1132.53 304.568 1132.67 304.035 1133.07 295.101C1133.6 281.768 1132.4 279.235 1124 277.235C1112.8 274.568 1113.33 279.368 1113.33 189.368C1113.33 119.635 1113.07 110.568 1111.2 108.701C1108.13 105.501 1078.53 105.635 1075.33 108.701Z" fill="#0076CF"/>
<path d="M486.667 159.102C478.4 161.368 475.2 163.368 467.733 170.302L461.333 176.302V169.368C461.333 163.235 460.933 162.302 457.867 161.235C456 160.435 448.533 159.902 441.333 159.902C429.2 159.902 428 160.168 426.133 162.835C424.267 165.502 424 176.968 424 260.702C424 350.835 424.133 355.635 426.4 357.635C428.4 359.502 431.867 359.902 444.133 359.902C466.667 359.902 465.333 362.035 465.333 327.768C465.333 312.435 465.6 299.902 466 299.902C466.267 299.902 468.667 301.368 471.333 303.102C487.733 314.302 514.933 314.168 534.667 302.835C542.933 298.168 554.133 287.368 559.6 278.835C567.6 266.302 569.6 258.835 570.267 237.235C571.333 207.102 567.333 192.302 554.133 177.635C541.067 163.102 526.8 157.102 505.467 157.368C498.4 157.368 490 158.168 486.667 159.102ZM511.733 194.435C518.667 198.035 523.2 203.235 527.6 212.568C530.933 219.635 531.333 222.168 531.333 233.235C531.333 244.968 530.933 246.702 526.933 254.835C519.6 269.768 506.533 278.568 492 278.568C484.133 278.568 474.267 274.968 470 270.568L466 266.435V234.168V202.035L471.6 198.035C482.133 190.702 501.067 188.968 511.733 194.435Z" fill="#0076CF"/>
<path d="M724.667 159.102C721.733 160.035 717.467 161.768 715.333 162.835C710.667 165.235 698.8 177.502 698.533 180.168C698.4 181.102 697.867 178.168 697.333 173.502C696 161.502 694.667 160.568 679.2 160.568C666.933 160.568 666.267 160.702 663.2 164.302L660 168.035V235.235C660 292.568 660.267 302.702 662 304.302C664 306.302 676.667 308.168 682.667 307.368C684.533 307.102 688.267 306.835 690.933 306.702C700.133 306.435 700 307.502 700 258.168C700 230.168 700.533 211.902 701.467 208.568C704.533 197.368 716.267 190.835 730.533 192.302C740 193.368 746.8 197.902 750.8 206.168C754 212.435 754 213.368 754.4 258.302C754.8 303.635 754.933 303.902 757.733 305.502C760.933 307.235 781.333 307.768 786.8 306.302C792.933 304.568 793.333 301.368 793.333 258.035C793.333 212.702 794.133 206.835 801.867 199.102C811.2 189.768 828.933 189.635 839.2 198.702C847.467 205.902 848 209.768 848 258.835V302.568L851.6 304.835C854.533 306.702 858 307.235 869.333 307.235C877.867 307.102 884.533 306.435 886.4 305.502L889.333 303.768V258.168C889.333 210.168 888.533 200.168 883.467 187.635C878.4 175.235 867.333 164.435 855.333 160.168C845.867 156.968 819.333 156.968 809.733 160.302C801.733 163.102 790.533 172.568 788 178.435L786.4 182.435L782.133 176.168C777.333 169.102 766.933 162.168 756.8 159.235C748.8 156.835 732 156.835 724.667 159.102Z" fill="#0076CF"/>
<path d="M964 159.768C951.067 163.235 941.867 168.702 931.2 179.235C914.933 195.235 908.133 215.235 909.733 241.902C911.2 264.168 916.667 277.635 930.133 291.368C944.267 305.902 969.733 313.502 994.8 310.702C1016.8 308.302 1041.47 297.635 1043.47 289.902C1044.4 285.902 1038.8 275.235 1032.67 269.235L1028.13 264.835L1017.73 270.968C1001.6 280.302 989.6 281.768 972.8 276.302C960.667 272.435 950.667 260.168 950.667 249.235V243.902H997.867C1053.2 243.902 1050.27 244.568 1051.47 230.568C1052.93 214.702 1046.27 191.235 1036.53 178.435C1029.87 169.768 1022.4 164.702 1010.27 160.568C997.733 156.435 977.733 156.035 964 159.768ZM998.533 189.768C1004.27 192.835 1009.07 199.102 1011.33 206.835C1015.07 219.635 1017.6 218.568 981.467 218.568H949.6L951.333 212.568C957.733 191.768 969.733 183.502 988.933 186.835C992.133 187.368 996.4 188.702 998.533 189.768Z" fill="#0076CF"/>
<path d="M595.067 161.502C593.2 162.435 591.733 164.568 591.333 167.102C590.933 169.368 590.667 201.102 590.933 237.635C591.333 302.302 591.467 304.168 594 306.035C597.467 308.568 625.333 308.035 628.533 305.368C630.4 303.768 630.667 295.902 630.667 233.768V164.035L627.733 162.035C624.133 159.502 599.867 159.235 595.067 161.502Z" fill="#0076CF"/>
</svg>
